<mxfile host="app.diagrams.net" modified="2023-11-05T22:06:46.263Z" agent="Mozilla/5.0 (Windows NT 10.0; Win64; x64) AppleWebKit/537.36 (KHTML, like Gecko) Chrome/118.0.0.0 Safari/537.36" etag="0cPYhL3A_haaPtYrm5We" version="22.0.8" type="device">
  <diagram name="Page-1" id="R7vICqJdHyn7M1I5Hd7J">
    <mxGraphModel dx="1717" dy="707" grid="1" gridSize="10" guides="1" tooltips="1" connect="1" arrows="1" fold="1" page="1" pageScale="1" pageWidth="827" pageHeight="1169" math="0" shadow="0">
      <root>
        <mxCell id="0" />
        <mxCell id="1" parent="0" />
        <mxCell id="CberOkeC7iPIoD50BDjG-1" value="" style="endArrow=none;dashed=1;html=1;dashPattern=1 3;strokeWidth=2;rounded=0;" edge="1" parent="1">
          <mxGeometry width="50" height="50" relative="1" as="geometry">
            <mxPoint x="410" y="1151.5999755859375" as="sourcePoint" />
            <mxPoint x="410" y="10" as="targetPoint" />
          </mxGeometry>
        </mxCell>
        <mxCell id="CberOkeC7iPIoD50BDjG-9" style="edgeStyle=orthogonalEdgeStyle;rounded=0;orthogonalLoop=1;jettySize=auto;html=1;exitX=1;exitY=0.5;exitDx=0;exitDy=0;entryX=0;entryY=0.5;entryDx=0;entryDy=0;" edge="1" parent="1" source="CberOkeC7iPIoD50BDjG-7" target="CberOkeC7iPIoD50BDjG-8">
          <mxGeometry relative="1" as="geometry" />
        </mxCell>
        <mxCell id="CberOkeC7iPIoD50BDjG-7" value="GetInput" style="rounded=1;whiteSpace=wrap;html=1;" vertex="1" parent="1">
          <mxGeometry x="40" y="40" width="120" height="60" as="geometry" />
        </mxCell>
        <mxCell id="CberOkeC7iPIoD50BDjG-8" value="Calculate" style="rounded=1;whiteSpace=wrap;html=1;" vertex="1" parent="1">
          <mxGeometry x="200" y="40" width="120" height="60" as="geometry" />
        </mxCell>
        <mxCell id="CberOkeC7iPIoD50BDjG-11" value="" style="endArrow=none;dashed=1;html=1;dashPattern=1 3;strokeWidth=2;rounded=0;" edge="1" parent="1">
          <mxGeometry width="50" height="50" relative="1" as="geometry">
            <mxPoint x="10" y="110" as="sourcePoint" />
            <mxPoint x="410" y="110" as="targetPoint" />
          </mxGeometry>
        </mxCell>
        <mxCell id="CberOkeC7iPIoD50BDjG-41" value="Inputs" style="swimlane;fontStyle=0;childLayout=stackLayout;horizontal=1;startSize=30;horizontalStack=0;resizeParent=1;resizeParentMax=0;resizeLast=0;collapsible=1;marginBottom=0;whiteSpace=wrap;html=1;" vertex="1" parent="1">
          <mxGeometry x="430" y="20" width="380" height="120" as="geometry">
            <mxRectangle x="430" y="20" width="60" height="30" as="alternateBounds" />
          </mxGeometry>
        </mxCell>
        <mxCell id="CberOkeC7iPIoD50BDjG-50" value="&lt;div style=&quot;color: rgb(212, 212, 212); background-color: rgb(30, 30, 30); font-family: Consolas, &amp;quot;Courier New&amp;quot;, monospace; font-size: 14px; line-height: 19px;&quot;&gt;operationButton&lt;/div&gt;" style="text;strokeColor=none;fillColor=none;align=left;verticalAlign=middle;spacingLeft=4;spacingRight=4;overflow=hidden;points=[[0,0.5],[1,0.5]];portConstraint=eastwest;rotatable=0;whiteSpace=wrap;html=1;" vertex="1" parent="CberOkeC7iPIoD50BDjG-41">
          <mxGeometry y="30" width="380" height="30" as="geometry" />
        </mxCell>
        <mxCell id="CberOkeC7iPIoD50BDjG-49" value="&lt;div style=&quot;color: rgb(212, 212, 212); background-color: rgb(30, 30, 30); font-family: Consolas, &amp;quot;Courier New&amp;quot;, monospace; font-size: 14px; line-height: 19px;&quot;&gt;editBtn&lt;/div&gt;" style="text;strokeColor=none;fillColor=none;align=left;verticalAlign=middle;spacingLeft=4;spacingRight=4;overflow=hidden;points=[[0,0.5],[1,0.5]];portConstraint=eastwest;rotatable=0;whiteSpace=wrap;html=1;" vertex="1" parent="CberOkeC7iPIoD50BDjG-41">
          <mxGeometry y="60" width="380" height="30" as="geometry" />
        </mxCell>
        <mxCell id="CberOkeC7iPIoD50BDjG-48" value="&lt;div style=&quot;color: rgb(212, 212, 212); background-color: rgb(30, 30, 30); font-family: Consolas, &amp;quot;Courier New&amp;quot;, monospace; font-size: 14px; line-height: 19px;&quot;&gt;numberBtn&lt;/div&gt;" style="text;strokeColor=none;fillColor=none;align=left;verticalAlign=middle;spacingLeft=4;spacingRight=4;overflow=hidden;points=[[0,0.5],[1,0.5]];portConstraint=eastwest;rotatable=0;whiteSpace=wrap;html=1;" vertex="1" parent="CberOkeC7iPIoD50BDjG-41">
          <mxGeometry y="90" width="380" height="30" as="geometry" />
        </mxCell>
        <mxCell id="CberOkeC7iPIoD50BDjG-51" value="Outputs" style="swimlane;fontStyle=0;childLayout=stackLayout;horizontal=1;startSize=30;horizontalStack=0;resizeParent=1;resizeParentMax=0;resizeLast=0;collapsible=1;marginBottom=0;whiteSpace=wrap;html=1;" vertex="1" parent="1">
          <mxGeometry x="430" y="160" width="380" height="90" as="geometry">
            <mxRectangle x="430" y="20" width="60" height="30" as="alternateBounds" />
          </mxGeometry>
        </mxCell>
        <mxCell id="CberOkeC7iPIoD50BDjG-52" value="&lt;div style=&quot;color: rgb(212, 212, 212); background-color: rgb(30, 30, 30); font-family: Consolas, &amp;quot;Courier New&amp;quot;, monospace; font-size: 14px; line-height: 19px;&quot;&gt;operationHistory&lt;/div&gt;" style="text;strokeColor=none;fillColor=none;align=left;verticalAlign=middle;spacingLeft=4;spacingRight=4;overflow=hidden;points=[[0,0.5],[1,0.5]];portConstraint=eastwest;rotatable=0;whiteSpace=wrap;html=1;" vertex="1" parent="CberOkeC7iPIoD50BDjG-51">
          <mxGeometry y="30" width="380" height="30" as="geometry" />
        </mxCell>
        <mxCell id="CberOkeC7iPIoD50BDjG-53" value="&lt;div style=&quot;color: rgb(212, 212, 212); background-color: rgb(30, 30, 30); font-family: Consolas, &amp;quot;Courier New&amp;quot;, monospace; font-size: 14px; line-height: 19px;&quot;&gt;operationResult&lt;/div&gt;" style="text;strokeColor=none;fillColor=none;align=left;verticalAlign=middle;spacingLeft=4;spacingRight=4;overflow=hidden;points=[[0,0.5],[1,0.5]];portConstraint=eastwest;rotatable=0;whiteSpace=wrap;html=1;" vertex="1" parent="CberOkeC7iPIoD50BDjG-51">
          <mxGeometry y="60" width="380" height="30" as="geometry" />
        </mxCell>
        <mxCell id="CberOkeC7iPIoD50BDjG-60" style="edgeStyle=orthogonalEdgeStyle;rounded=0;orthogonalLoop=1;jettySize=auto;html=1;entryX=0.5;entryY=0;entryDx=0;entryDy=0;" edge="1" parent="1" source="CberOkeC7iPIoD50BDjG-56" target="CberOkeC7iPIoD50BDjG-61">
          <mxGeometry relative="1" as="geometry" />
        </mxCell>
        <mxCell id="CberOkeC7iPIoD50BDjG-56" value="InputValue" style="text;html=1;strokeColor=none;fillColor=none;align=center;verticalAlign=middle;whiteSpace=wrap;rounded=0;" vertex="1" parent="1">
          <mxGeometry x="170" y="140" width="60" height="30" as="geometry" />
        </mxCell>
        <mxCell id="CberOkeC7iPIoD50BDjG-62" style="edgeStyle=orthogonalEdgeStyle;rounded=0;orthogonalLoop=1;jettySize=auto;html=1;exitX=0.5;exitY=0;exitDx=0;exitDy=0;entryX=0.5;entryY=0;entryDx=0;entryDy=0;" edge="1" parent="1" source="CberOkeC7iPIoD50BDjG-57" target="CberOkeC7iPIoD50BDjG-61">
          <mxGeometry relative="1" as="geometry" />
        </mxCell>
        <mxCell id="CberOkeC7iPIoD50BDjG-63" style="edgeStyle=orthogonalEdgeStyle;rounded=0;orthogonalLoop=1;jettySize=auto;html=1;exitX=0.5;exitY=0;exitDx=0;exitDy=0;entryX=0.5;entryY=0;entryDx=0;entryDy=0;" edge="1" parent="1" source="CberOkeC7iPIoD50BDjG-57" target="CberOkeC7iPIoD50BDjG-61">
          <mxGeometry relative="1" as="geometry" />
        </mxCell>
        <mxCell id="CberOkeC7iPIoD50BDjG-57" value="" style="rounded=0;whiteSpace=wrap;html=1;" vertex="1" parent="1">
          <mxGeometry x="40" y="200" width="320" height="510" as="geometry" />
        </mxCell>
        <mxCell id="CberOkeC7iPIoD50BDjG-64" style="edgeStyle=orthogonalEdgeStyle;rounded=0;orthogonalLoop=1;jettySize=auto;html=1;exitX=0.5;exitY=0;exitDx=0;exitDy=0;entryX=0.5;entryY=0;entryDx=0;entryDy=0;" edge="1" parent="1" source="CberOkeC7iPIoD50BDjG-57" target="CberOkeC7iPIoD50BDjG-61">
          <mxGeometry relative="1" as="geometry" />
        </mxCell>
        <mxCell id="CberOkeC7iPIoD50BDjG-59" value="GetInput" style="text;html=1;strokeColor=none;fillColor=none;align=center;verticalAlign=middle;whiteSpace=wrap;rounded=0;" vertex="1" parent="1">
          <mxGeometry x="30" y="200" width="60" height="30" as="geometry" />
        </mxCell>
        <mxCell id="CberOkeC7iPIoD50BDjG-68" style="edgeStyle=orthogonalEdgeStyle;rounded=0;orthogonalLoop=1;jettySize=auto;html=1;exitX=1;exitY=0.5;exitDx=0;exitDy=0;entryX=0.5;entryY=0;entryDx=0;entryDy=0;" edge="1" parent="1" source="CberOkeC7iPIoD50BDjG-61">
          <mxGeometry relative="1" as="geometry">
            <mxPoint x="290" y="290" as="targetPoint" />
            <Array as="points">
              <mxPoint x="290" y="260" />
            </Array>
          </mxGeometry>
        </mxCell>
        <mxCell id="CberOkeC7iPIoD50BDjG-71" value="True" style="edgeLabel;html=1;align=center;verticalAlign=middle;resizable=0;points=[];" vertex="1" connectable="0" parent="CberOkeC7iPIoD50BDjG-68">
          <mxGeometry x="-0.2793" y="-2" relative="1" as="geometry">
            <mxPoint x="-1" as="offset" />
          </mxGeometry>
        </mxCell>
        <mxCell id="CberOkeC7iPIoD50BDjG-70" style="edgeStyle=orthogonalEdgeStyle;rounded=0;orthogonalLoop=1;jettySize=auto;html=1;" edge="1" parent="1" source="CberOkeC7iPIoD50BDjG-61" target="CberOkeC7iPIoD50BDjG-69">
          <mxGeometry relative="1" as="geometry" />
        </mxCell>
        <mxCell id="CberOkeC7iPIoD50BDjG-61" value="inputValue is&lt;br&gt;operator?" style="rhombus;whiteSpace=wrap;html=1;" vertex="1" parent="1">
          <mxGeometry x="160" y="220" width="80" height="80" as="geometry" />
        </mxCell>
        <mxCell id="CberOkeC7iPIoD50BDjG-73" style="edgeStyle=orthogonalEdgeStyle;rounded=0;orthogonalLoop=1;jettySize=auto;html=1;exitX=1;exitY=0.5;exitDx=0;exitDy=0;" edge="1" parent="1" source="CberOkeC7iPIoD50BDjG-69" target="CberOkeC7iPIoD50BDjG-72">
          <mxGeometry relative="1" as="geometry" />
        </mxCell>
        <mxCell id="CberOkeC7iPIoD50BDjG-74" value="True" style="edgeLabel;html=1;align=center;verticalAlign=middle;resizable=0;points=[];" vertex="1" connectable="0" parent="CberOkeC7iPIoD50BDjG-73">
          <mxGeometry x="-0.1959" y="-1" relative="1" as="geometry">
            <mxPoint x="-1" as="offset" />
          </mxGeometry>
        </mxCell>
        <mxCell id="CberOkeC7iPIoD50BDjG-76" style="edgeStyle=orthogonalEdgeStyle;rounded=0;orthogonalLoop=1;jettySize=auto;html=1;entryX=0.5;entryY=0;entryDx=0;entryDy=0;" edge="1" parent="1" source="CberOkeC7iPIoD50BDjG-69" target="CberOkeC7iPIoD50BDjG-75">
          <mxGeometry relative="1" as="geometry" />
        </mxCell>
        <mxCell id="CberOkeC7iPIoD50BDjG-69" value="An Operator exist?" style="rhombus;whiteSpace=wrap;html=1;" vertex="1" parent="1">
          <mxGeometry x="60" y="335" width="80" height="80" as="geometry" />
        </mxCell>
        <mxCell id="CberOkeC7iPIoD50BDjG-72" value="Add to Operand2" style="shape=parallelogram;perimeter=parallelogramPerimeter;whiteSpace=wrap;html=1;fixedSize=1;" vertex="1" parent="1">
          <mxGeometry x="120" y="400" width="120" height="30" as="geometry" />
        </mxCell>
        <mxCell id="CberOkeC7iPIoD50BDjG-75" value="Add to Operand1" style="shape=parallelogram;perimeter=parallelogramPerimeter;whiteSpace=wrap;html=1;fixedSize=1;" vertex="1" parent="1">
          <mxGeometry x="40" y="450" width="120" height="30" as="geometry" />
        </mxCell>
        <mxCell id="CberOkeC7iPIoD50BDjG-79" style="edgeStyle=orthogonalEdgeStyle;rounded=0;orthogonalLoop=1;jettySize=auto;html=1;exitX=0.5;exitY=1;exitDx=0;exitDy=0;entryX=0.5;entryY=0;entryDx=0;entryDy=0;" edge="1" parent="1" source="CberOkeC7iPIoD50BDjG-77" target="CberOkeC7iPIoD50BDjG-78">
          <mxGeometry relative="1" as="geometry" />
        </mxCell>
        <mxCell id="CberOkeC7iPIoD50BDjG-109" value="True" style="edgeLabel;html=1;align=center;verticalAlign=middle;resizable=0;points=[];" vertex="1" connectable="0" parent="CberOkeC7iPIoD50BDjG-79">
          <mxGeometry x="-0.2032" y="-1" relative="1" as="geometry">
            <mxPoint as="offset" />
          </mxGeometry>
        </mxCell>
        <mxCell id="CberOkeC7iPIoD50BDjG-88" style="edgeStyle=orthogonalEdgeStyle;rounded=0;orthogonalLoop=1;jettySize=auto;html=1;exitX=0;exitY=0.5;exitDx=0;exitDy=0;entryX=1;entryY=0.5;entryDx=0;entryDy=0;" edge="1" parent="1" source="CberOkeC7iPIoD50BDjG-77" target="CberOkeC7iPIoD50BDjG-87">
          <mxGeometry relative="1" as="geometry" />
        </mxCell>
        <mxCell id="CberOkeC7iPIoD50BDjG-77" value="operand2&lt;br&gt;exist?" style="rhombus;whiteSpace=wrap;html=1;" vertex="1" parent="1">
          <mxGeometry x="250" y="290" width="80" height="80" as="geometry" />
        </mxCell>
        <mxCell id="CberOkeC7iPIoD50BDjG-90" style="edgeStyle=orthogonalEdgeStyle;rounded=0;orthogonalLoop=1;jettySize=auto;html=1;entryX=0;entryY=0.25;entryDx=0;entryDy=0;" edge="1" parent="1" source="CberOkeC7iPIoD50BDjG-78" target="CberOkeC7iPIoD50BDjG-89">
          <mxGeometry relative="1" as="geometry" />
        </mxCell>
        <mxCell id="CberOkeC7iPIoD50BDjG-106" style="edgeStyle=orthogonalEdgeStyle;rounded=0;orthogonalLoop=1;jettySize=auto;html=1;exitX=0.5;exitY=1;exitDx=0;exitDy=0;entryX=0.5;entryY=0;entryDx=0;entryDy=0;" edge="1" parent="1" source="CberOkeC7iPIoD50BDjG-78" target="CberOkeC7iPIoD50BDjG-105">
          <mxGeometry relative="1" as="geometry" />
        </mxCell>
        <mxCell id="CberOkeC7iPIoD50BDjG-78" value="calculate()" style="shape=parallelogram;perimeter=parallelogramPerimeter;whiteSpace=wrap;html=1;fixedSize=1;" vertex="1" parent="1">
          <mxGeometry x="240" y="400" width="120" height="30" as="geometry" />
        </mxCell>
        <mxCell id="CberOkeC7iPIoD50BDjG-81" value="register operator" style="shape=parallelogram;perimeter=parallelogramPerimeter;whiteSpace=wrap;html=1;fixedSize=1;" vertex="1" parent="1">
          <mxGeometry x="230" y="554.5" width="120" height="30" as="geometry" />
        </mxCell>
        <mxCell id="CberOkeC7iPIoD50BDjG-87" value="RegisterOperator" style="shape=parallelogram;perimeter=parallelogramPerimeter;whiteSpace=wrap;html=1;fixedSize=1;" vertex="1" parent="1">
          <mxGeometry x="130" y="315" width="120" height="30" as="geometry" />
        </mxCell>
        <mxCell id="CberOkeC7iPIoD50BDjG-89" value="" style="rounded=0;whiteSpace=wrap;html=1;" vertex="1" parent="1">
          <mxGeometry x="440" y="315" width="320" height="215" as="geometry" />
        </mxCell>
        <mxCell id="CberOkeC7iPIoD50BDjG-91" value="Calculate" style="text;html=1;strokeColor=none;fillColor=none;align=center;verticalAlign=middle;whiteSpace=wrap;rounded=0;" vertex="1" parent="1">
          <mxGeometry x="440" y="310" width="60" height="30" as="geometry" />
        </mxCell>
        <mxCell id="CberOkeC7iPIoD50BDjG-92" value="Operand2" style="text;html=1;strokeColor=none;fillColor=none;align=center;verticalAlign=middle;whiteSpace=wrap;rounded=0;" vertex="1" parent="1">
          <mxGeometry x="690" y="270" width="60" height="30" as="geometry" />
        </mxCell>
        <mxCell id="CberOkeC7iPIoD50BDjG-93" style="edgeStyle=orthogonalEdgeStyle;rounded=0;orthogonalLoop=1;jettySize=auto;html=1;entryX=0.873;entryY=0;entryDx=0;entryDy=0;entryPerimeter=0;" edge="1" parent="1" source="CberOkeC7iPIoD50BDjG-92" target="CberOkeC7iPIoD50BDjG-89">
          <mxGeometry relative="1" as="geometry" />
        </mxCell>
        <mxCell id="CberOkeC7iPIoD50BDjG-95" style="edgeStyle=orthogonalEdgeStyle;rounded=0;orthogonalLoop=1;jettySize=auto;html=1;entryX=0.25;entryY=0;entryDx=0;entryDy=0;" edge="1" parent="1" source="CberOkeC7iPIoD50BDjG-94" target="CberOkeC7iPIoD50BDjG-89">
          <mxGeometry relative="1" as="geometry" />
        </mxCell>
        <mxCell id="CberOkeC7iPIoD50BDjG-94" value="Operand1" style="text;html=1;strokeColor=none;fillColor=none;align=center;verticalAlign=middle;whiteSpace=wrap;rounded=0;" vertex="1" parent="1">
          <mxGeometry x="480" y="270" width="60" height="30" as="geometry" />
        </mxCell>
        <mxCell id="CberOkeC7iPIoD50BDjG-97" style="edgeStyle=orthogonalEdgeStyle;rounded=0;orthogonalLoop=1;jettySize=auto;html=1;" edge="1" parent="1" source="CberOkeC7iPIoD50BDjG-96" target="CberOkeC7iPIoD50BDjG-89">
          <mxGeometry relative="1" as="geometry" />
        </mxCell>
        <mxCell id="CberOkeC7iPIoD50BDjG-96" value="Operator" style="text;html=1;strokeColor=none;fillColor=none;align=center;verticalAlign=middle;whiteSpace=wrap;rounded=0;" vertex="1" parent="1">
          <mxGeometry x="570" y="270" width="60" height="30" as="geometry" />
        </mxCell>
        <mxCell id="CberOkeC7iPIoD50BDjG-101" style="edgeStyle=orthogonalEdgeStyle;rounded=0;orthogonalLoop=1;jettySize=auto;html=1;exitX=0.5;exitY=1;exitDx=0;exitDy=0;entryX=0.5;entryY=0;entryDx=0;entryDy=0;" edge="1" parent="1" source="CberOkeC7iPIoD50BDjG-98" target="CberOkeC7iPIoD50BDjG-100">
          <mxGeometry relative="1" as="geometry" />
        </mxCell>
        <mxCell id="CberOkeC7iPIoD50BDjG-98" value="+Operand1 operator +Operand2" style="shape=parallelogram;perimeter=parallelogramPerimeter;whiteSpace=wrap;html=1;fixedSize=1;" vertex="1" parent="1">
          <mxGeometry x="495" y="350" width="210" height="30" as="geometry" />
        </mxCell>
        <mxCell id="CberOkeC7iPIoD50BDjG-103" style="edgeStyle=orthogonalEdgeStyle;rounded=0;orthogonalLoop=1;jettySize=auto;html=1;exitX=0.5;exitY=1;exitDx=0;exitDy=0;entryX=0.5;entryY=0;entryDx=0;entryDy=0;" edge="1" parent="1" source="CberOkeC7iPIoD50BDjG-100" target="CberOkeC7iPIoD50BDjG-102">
          <mxGeometry relative="1" as="geometry" />
        </mxCell>
        <mxCell id="CberOkeC7iPIoD50BDjG-100" value="Operand1" style="shape=parallelogram;perimeter=parallelogramPerimeter;whiteSpace=wrap;html=1;fixedSize=1;" vertex="1" parent="1">
          <mxGeometry x="530" y="400" width="120" height="30" as="geometry" />
        </mxCell>
        <mxCell id="CberOkeC7iPIoD50BDjG-102" value="Display=operand1" style="shape=parallelogram;perimeter=parallelogramPerimeter;whiteSpace=wrap;html=1;fixedSize=1;" vertex="1" parent="1">
          <mxGeometry x="520" y="450" width="120" height="30" as="geometry" />
        </mxCell>
        <mxCell id="CberOkeC7iPIoD50BDjG-104" value="Operator=&#39;&#39;" style="shape=parallelogram;perimeter=parallelogramPerimeter;whiteSpace=wrap;html=1;fixedSize=1;" vertex="1" parent="1">
          <mxGeometry x="500" y="480" width="120" height="30" as="geometry" />
        </mxCell>
        <mxCell id="CberOkeC7iPIoD50BDjG-107" style="edgeStyle=orthogonalEdgeStyle;rounded=0;orthogonalLoop=1;jettySize=auto;html=1;entryX=0.5;entryY=0;entryDx=0;entryDy=0;" edge="1" parent="1" source="CberOkeC7iPIoD50BDjG-105" target="CberOkeC7iPIoD50BDjG-81">
          <mxGeometry relative="1" as="geometry">
            <mxPoint x="230" y="590" as="targetPoint" />
          </mxGeometry>
        </mxCell>
        <mxCell id="CberOkeC7iPIoD50BDjG-108" value="True" style="edgeLabel;html=1;align=center;verticalAlign=middle;resizable=0;points=[];" vertex="1" connectable="0" parent="CberOkeC7iPIoD50BDjG-107">
          <mxGeometry x="0.3342" y="-1" relative="1" as="geometry">
            <mxPoint as="offset" />
          </mxGeometry>
        </mxCell>
        <mxCell id="CberOkeC7iPIoD50BDjG-111" style="edgeStyle=orthogonalEdgeStyle;rounded=0;orthogonalLoop=1;jettySize=auto;html=1;exitX=0;exitY=0.5;exitDx=0;exitDy=0;entryX=0.5;entryY=0;entryDx=0;entryDy=0;" edge="1" parent="1" source="CberOkeC7iPIoD50BDjG-105" target="CberOkeC7iPIoD50BDjG-110">
          <mxGeometry relative="1" as="geometry" />
        </mxCell>
        <mxCell id="CberOkeC7iPIoD50BDjG-112" value="false" style="edgeLabel;html=1;align=center;verticalAlign=middle;resizable=0;points=[];" vertex="1" connectable="0" parent="CberOkeC7iPIoD50BDjG-111">
          <mxGeometry x="-0.0425" y="1" relative="1" as="geometry">
            <mxPoint x="-1" as="offset" />
          </mxGeometry>
        </mxCell>
        <mxCell id="CberOkeC7iPIoD50BDjG-105" value="Operator# =" style="rhombus;whiteSpace=wrap;html=1;" vertex="1" parent="1">
          <mxGeometry x="250" y="450" width="80" height="80" as="geometry" />
        </mxCell>
        <mxCell id="CberOkeC7iPIoD50BDjG-110" value="operator=&#39;&quot;&quot;" style="shape=parallelogram;perimeter=parallelogramPerimeter;whiteSpace=wrap;html=1;fixedSize=1;" vertex="1" parent="1">
          <mxGeometry x="120" y="530" width="120" height="30" as="geometry" />
        </mxCell>
        <mxCell id="CberOkeC7iPIoD50BDjG-113" value="operand1=&#39;&#39;" style="shape=parallelogram;perimeter=parallelogramPerimeter;whiteSpace=wrap;html=1;fixedSize=1;" vertex="1" parent="1">
          <mxGeometry x="100" y="560" width="120" height="30" as="geometry" />
        </mxCell>
        <mxCell id="CberOkeC7iPIoD50BDjG-114" value="" style="rounded=0;whiteSpace=wrap;html=1;" vertex="1" parent="1">
          <mxGeometry x="440" y="560" width="380" height="520" as="geometry" />
        </mxCell>
        <mxCell id="CberOkeC7iPIoD50BDjG-115" value="Edit" style="text;html=1;strokeColor=none;fillColor=none;align=center;verticalAlign=middle;whiteSpace=wrap;rounded=0;" vertex="1" parent="1">
          <mxGeometry x="440" y="560" width="60" height="30" as="geometry" />
        </mxCell>
        <mxCell id="CberOkeC7iPIoD50BDjG-118" style="edgeStyle=orthogonalEdgeStyle;rounded=0;orthogonalLoop=1;jettySize=auto;html=1;exitX=1;exitY=0.5;exitDx=0;exitDy=0;entryX=0.5;entryY=0;entryDx=0;entryDy=0;" edge="1" parent="1" source="CberOkeC7iPIoD50BDjG-116">
          <mxGeometry relative="1" as="geometry">
            <mxPoint x="600" y="660" as="targetPoint" />
            <Array as="points">
              <mxPoint x="600" y="630" />
            </Array>
          </mxGeometry>
        </mxCell>
        <mxCell id="CberOkeC7iPIoD50BDjG-135" style="edgeStyle=orthogonalEdgeStyle;rounded=0;orthogonalLoop=1;jettySize=auto;html=1;entryX=0;entryY=0.5;entryDx=0;entryDy=0;" edge="1" parent="1" source="CberOkeC7iPIoD50BDjG-116" target="CberOkeC7iPIoD50BDjG-136">
          <mxGeometry relative="1" as="geometry">
            <mxPoint x="490" y="840" as="targetPoint" />
            <Array as="points">
              <mxPoint x="470" y="770" />
              <mxPoint x="460" y="770" />
              <mxPoint x="460" y="910" />
            </Array>
          </mxGeometry>
        </mxCell>
        <mxCell id="CberOkeC7iPIoD50BDjG-116" value="delete?" style="rhombus;whiteSpace=wrap;html=1;" vertex="1" parent="1">
          <mxGeometry x="470" y="590" width="80" height="80" as="geometry" />
        </mxCell>
        <mxCell id="CberOkeC7iPIoD50BDjG-122" style="edgeStyle=orthogonalEdgeStyle;rounded=0;orthogonalLoop=1;jettySize=auto;html=1;entryX=0.5;entryY=0;entryDx=0;entryDy=0;" edge="1" parent="1" source="CberOkeC7iPIoD50BDjG-119" target="CberOkeC7iPIoD50BDjG-120">
          <mxGeometry relative="1" as="geometry" />
        </mxCell>
        <mxCell id="CberOkeC7iPIoD50BDjG-133" style="edgeStyle=orthogonalEdgeStyle;rounded=0;orthogonalLoop=1;jettySize=auto;html=1;exitX=0.5;exitY=1;exitDx=0;exitDy=0;entryX=0.5;entryY=0;entryDx=0;entryDy=0;" edge="1" parent="1" source="CberOkeC7iPIoD50BDjG-119" target="CberOkeC7iPIoD50BDjG-132">
          <mxGeometry relative="1" as="geometry" />
        </mxCell>
        <mxCell id="CberOkeC7iPIoD50BDjG-119" value="Operator exist" style="rhombus;whiteSpace=wrap;html=1;" vertex="1" parent="1">
          <mxGeometry x="560" y="660" width="80" height="80" as="geometry" />
        </mxCell>
        <mxCell id="CberOkeC7iPIoD50BDjG-125" style="edgeStyle=orthogonalEdgeStyle;rounded=0;orthogonalLoop=1;jettySize=auto;html=1;exitX=1;exitY=0.5;exitDx=0;exitDy=0;entryX=0.5;entryY=0;entryDx=0;entryDy=0;" edge="1" parent="1" source="CberOkeC7iPIoD50BDjG-120" target="CberOkeC7iPIoD50BDjG-126">
          <mxGeometry relative="1" as="geometry">
            <mxPoint x="760" y="790" as="targetPoint" />
          </mxGeometry>
        </mxCell>
        <mxCell id="CberOkeC7iPIoD50BDjG-130" value="true" style="edgeLabel;html=1;align=center;verticalAlign=middle;resizable=0;points=[];" vertex="1" connectable="0" parent="CberOkeC7iPIoD50BDjG-125">
          <mxGeometry x="-0.4686" y="-3" relative="1" as="geometry">
            <mxPoint as="offset" />
          </mxGeometry>
        </mxCell>
        <mxCell id="CberOkeC7iPIoD50BDjG-129" style="edgeStyle=orthogonalEdgeStyle;rounded=0;orthogonalLoop=1;jettySize=auto;html=1;exitX=0;exitY=0.5;exitDx=0;exitDy=0;entryX=0.5;entryY=0;entryDx=0;entryDy=0;" edge="1" parent="1" source="CberOkeC7iPIoD50BDjG-120" target="CberOkeC7iPIoD50BDjG-128">
          <mxGeometry relative="1" as="geometry" />
        </mxCell>
        <mxCell id="CberOkeC7iPIoD50BDjG-131" value="false" style="edgeLabel;html=1;align=center;verticalAlign=middle;resizable=0;points=[];" vertex="1" connectable="0" parent="CberOkeC7iPIoD50BDjG-129">
          <mxGeometry x="0.0489" y="1" relative="1" as="geometry">
            <mxPoint as="offset" />
          </mxGeometry>
        </mxCell>
        <mxCell id="CberOkeC7iPIoD50BDjG-120" value="Operand2 exist?" style="rhombus;whiteSpace=wrap;html=1;" vertex="1" parent="1">
          <mxGeometry x="660" y="720" width="80" height="80" as="geometry" />
        </mxCell>
        <mxCell id="CberOkeC7iPIoD50BDjG-126" value="Operand2 delete last" style="shape=parallelogram;perimeter=parallelogramPerimeter;whiteSpace=wrap;html=1;fixedSize=1;" vertex="1" parent="1">
          <mxGeometry x="690" y="805" width="120" height="45" as="geometry" />
        </mxCell>
        <mxCell id="CberOkeC7iPIoD50BDjG-128" value="operator=&#39; &#39;" style="shape=parallelogram;perimeter=parallelogramPerimeter;whiteSpace=wrap;html=1;fixedSize=1;" vertex="1" parent="1">
          <mxGeometry x="570" y="820" width="120" height="30" as="geometry" />
        </mxCell>
        <mxCell id="CberOkeC7iPIoD50BDjG-132" value="Operand1 delete" style="shape=parallelogram;perimeter=parallelogramPerimeter;whiteSpace=wrap;html=1;fixedSize=1;" vertex="1" parent="1">
          <mxGeometry x="495" y="770" width="120" height="30" as="geometry" />
        </mxCell>
        <mxCell id="CberOkeC7iPIoD50BDjG-138" style="edgeStyle=orthogonalEdgeStyle;rounded=0;orthogonalLoop=1;jettySize=auto;html=1;exitX=1;exitY=0.5;exitDx=0;exitDy=0;entryX=0;entryY=0.5;entryDx=0;entryDy=0;" edge="1" parent="1" source="CberOkeC7iPIoD50BDjG-136" target="CberOkeC7iPIoD50BDjG-137">
          <mxGeometry relative="1" as="geometry" />
        </mxCell>
        <mxCell id="CberOkeC7iPIoD50BDjG-136" value="Clear" style="triangle;whiteSpace=wrap;html=1;" vertex="1" parent="1">
          <mxGeometry x="480" y="870" width="60" height="80" as="geometry" />
        </mxCell>
        <mxCell id="CberOkeC7iPIoD50BDjG-137" value="operand1,operand2,operator,history" style="shape=parallelogram;perimeter=parallelogramPerimeter;whiteSpace=wrap;html=1;fixedSize=1;" vertex="1" parent="1">
          <mxGeometry x="570" y="892.5" width="220" height="35" as="geometry" />
        </mxCell>
        <mxCell id="CberOkeC7iPIoD50BDjG-139" value="operand2=&#39;&quot;" style="shape=parallelogram;perimeter=parallelogramPerimeter;whiteSpace=wrap;html=1;fixedSize=1;" vertex="1" parent="1">
          <mxGeometry x="600" y="480" width="120" height="30" as="geometry" />
        </mxCell>
      </root>
    </mxGraphModel>
  </diagram>
</mxfile>
